<?xml version="1.0" standalone="no"?>
<!DOCTYPE svg PUBLIC "-//W3C//DTD SVG 20010904//EN"
 "http://www.w3.org/TR/2001/REC-SVG-20010904/DTD/svg10.dtd">
<svg version="1.0" xmlns="http://www.w3.org/2000/svg"
 width="256.000000pt" height="256.000000pt" viewBox="0 0 256.000000 256.000000"
 preserveAspectRatio="xMidYMid meet">
<metadata>
Created by potrace 1.14, written by Peter Selinger 2001-2017
</metadata>
<g transform="translate(0.000000,256.000000) scale(0.100000,-0.100000)"
fill="#000000" stroke="none">
<path d="M868 2015 c-2 -1 -28 -5 -58 -8 -183 -17 -354 -107 -401 -212 -36
-78 -20 -196 34 -253 38 -41 69 -51 150 -49 66 2 81 6 119 33 23 16 53 48 66
69 53 94 1 244 -99 286 -16 6 -29 15 -29 19 0 17 92 51 152 57 122 10 192 -28
228 -123 17 -47 20 -79 21 -206 0 -215 -9 -225 -273 -312 -168 -55 -229 -80
-298 -124 -105 -66 -160 -161 -162 -278 -1 -78 8 -119 38 -181 51 -105 151
-163 294 -168 135 -5 206 17 296 89 28 22 64 58 80 79 l29 39 7 -43 c18 -105
101 -161 246 -165 123 -3 227 26 300 83 21 17 21 20 7 40 -15 22 -16 22 -48 3
-49 -29 -82 -32 -104 -8 -17 19 -18 49 -19 472 -1 248 -4 478 -8 512 -20 192
-112 295 -302 334 -51 11 -258 22 -266 15z m183 -861 c0 -126 -1 -248 -1 -271
0 -36 -6 -49 -40 -83 -92 -92 -241 -77 -286 28 -20 47 -23 163 -6 222 21 73
72 131 196 224 65 48 120 94 123 102 3 8 7 13 10 10 2 -2 4 -107 4 -232z"/>
<path d="M1919 951 c-85 -26 -134 -84 -145 -169 -19 -161 116 -268 292 -232
107 22 166 93 165 199 0 103 -51 175 -142 201 -39 12 -133 12 -170 1z"/>
</g>
</svg>
